<?xml version="1.0" encoding="utf-8"?>
<!-- Generator: Adobe Illustrator 22.1.0, SVG Export Plug-In . SVG Version: 6.00 Build 0)  -->
<svg version="1.1" id="LOGO" xmlns="http://www.w3.org/2000/svg" xmlns:xlink="http://www.w3.org/1999/xlink" x="0px" y="0px"
	 width="1200px" height="1200px" viewBox="0 0 1200 1200" enable-background="new 0 0 1200 1200" xml:space="preserve">
<g>
	<polygon fill="#6FAFDA" points="595.968,77.995 458.135,243.688 615.763,370.523 750.663,259.817 	"/>
	<polygon fill="#112D54" points="772.657,624.194 595.234,1122.005 462.534,734.167 589.369,509.822 	"/>
	<polygon fill="#2B67AE" points="384.82,548.679 502.027,882.162 595.234,625.66 470.599,438.706 	"/>
	<polygon fill="#539ADE" points="264.583,370.523 540.248,370.523 402.415,639.59 	"/>
	<polygon fill="#9DDBF5" points="501.391,171.106 391.418,289.143 490.394,351.461 577.639,248.82 	"/>
	<polygon fill="#D5F7FE" points="402.415,265.682 264.583,370.523 540.248,370.523 	"/>
	<polygon fill="#194588" points="935.417,370.523 766.792,715.838 595.234,370.523 	"/>
	<polygon fill="#7EC5ED" points="765.326,229.758 935.417,370.523 595.234,370.523 	"/>
	<polygon fill="#BBE8FA" points="613.197,207.763 419.278,370.523 807.116,370.523 	"/>
	<polygon fill="#3D85CD" points="419.278,370.523 807.116,370.523 613.197,769.358 	"/>
</g>
</svg>
